# xmcd
#
# Track frame offsets:
#	183
#	13325
#	29078
#	41155
#	54653
#	68443
#	81010
#	99973
#	113718
#	126820
#	147235
#	159228
#	171078
#	186993
#	199918
#	216393
#	231623
#	244463
#	256403
#	270053
#
# Disc length: 3755 seconds
#
# Revision: 1
# Processed by: cddbd v1.4PL0 Copyright (c) Steve Scherf et al.
# Submitted via: EasyCDDAExtractor 5.0.6
#
DISCID=240ea914
DTITLE=<< compilation disc >> - The Most Beatiful country songs
DYEAR=1900
DGENRE=country
TTITLE0=Rhinestone cowboy
TTITLE1=Blanket on the ground
TTITLE2=Stand by your man
TTITLE3=Southern nights
TTITLE4=Back on my mind again
TTITLE5=I can't stop loving you
TTITLE6=She believes in me
TTITLE7=Talking in your sleep
TTITLE8=let your love flow
TTITLE9=Mississippi
TTITLE10=Sunflower
TTITLE11=Arms of Mary
TTITLE12=Crossfire
TTITLE13=Loving arms
TTITLE14=Rock 'n Roll
TTITLE15=Sam
TTITLE16=By the time i go to Phoenix
TTITLE17=A very special love song
TTITLE18=I can help
TTITLE19=Jolene
EXTD=
EXTT0=
EXTT1=
EXTT2=
EXTT3=
EXTT4=
EXTT5=
EXTT6=
EXTT7=
EXTT8=
EXTT9=
EXTT10=
EXTT11=
EXTT12=
EXTT13=
EXTT14=
EXTT15=
EXTT16=
EXTT17=
EXTT18=
EXTT19=
PLAYORDER=
